<?xml version="1.0" encoding="UTF-8" standalone="no"?>
<svg
   xmlns:dc="http://purl.org/dc/elements/1.1/"
   xmlns:cc="http://creativecommons.org/ns#"
   xmlns:rdf="http://www.w3.org/1999/02/22-rdf-syntax-ns#"
   xmlns:svg="http://www.w3.org/2000/svg"
   xmlns="http://www.w3.org/2000/svg"
   xmlns:sodipodi="http://sodipodi.sourceforge.net/DTD/sodipodi-0.dtd"
   xmlns:inkscape="http://www.inkscape.org/namespaces/inkscape"
   width="147pt"
   height="148pt"
   viewBox="0 0 147 148"
   version="1.1"
   id="svg2"
   inkscape:version="0.91 r13725"
   sodipodi:docname="ribbit-transparent.svg">
  <metadata
     id="metadata92">
    <rdf:RDF>
      <cc:Work
         rdf:about="">
        <dc:format>image/svg+xml</dc:format>
        <dc:type
           rdf:resource="http://purl.org/dc/dcmitype/StillImage" />
        <dc:title></dc:title>
      </cc:Work>
    </rdf:RDF>
  </metadata>
  <defs
     id="defs90" />
  <sodipodi:namedview
     pagecolor="#ffffff"
     bordercolor="#666666"
     borderopacity="1"
     objecttolerance="10"
     gridtolerance="10"
     guidetolerance="10"
     inkscape:pageopacity="0"
     inkscape:pageshadow="2"
     inkscape:window-width="1050"
     inkscape:window-height="1553"
     id="namedview88"
     showgrid="false"
     inkscape:zoom="3.6081557"
     inkscape:cx="70.0899"
     inkscape:cy="51.679358"
     inkscape:window-x="1671"
     inkscape:window-y="-9"
     inkscape:window-maximized="1"
     inkscape:current-layer="svg2" />
  <path
     fill="#fe6a26"
     d=" M 78.00 7.98 C 83.70 6.74 90.43 6.85 95.04 10.90 C 97.46 12.84 98.53 15.86 99.94 18.51 C 99.54 20.06 99.18 21.63 98.79 23.18 C 93.19 24.19 87.35 26.15 81.70 24.26 C 76.55 22.71 70.00 19.60 70.84 13.11 C 72.29 10.49 74.95 8.36 78.00 7.98 Z"
     id="path6" />
  <path
     fill="#ff4e11"
     d=" M 78.86 12.85 C 81.53 8.65 87.28 9.19 91.35 10.73 C 93.10 11.56 95.55 12.65 95.14 15.03 C 95.44 16.81 93.69 18.21 92.03 18.18 C 87.13 18.36 82.40 16.16 78.86 12.85 Z"
     id="path8" />
  <path
     fill="#fd7a2d"
     d=" M 86.64 11.11 C 87.54 11.09 89.35 11.05 90.25 11.03 C 90.12 12.56 89.64 14.02 88.92 15.37 C 87.71 14.22 87.04 12.71 86.64 11.11 Z"
     id="path10" />
  <path
     fill="#c8571c"
     d=" M 68.67 16.71 C 69.41 15.52 70.10 14.30 70.84 13.11 C 70.00 19.60 76.55 22.71 81.70 24.26 C 87.35 26.15 93.19 24.19 98.79 23.18 C 94.59 26.30 89.07 26.91 84.00 26.48 C 77.95 25.35 71.29 22.76 68.67 16.71 Z"
     id="path12" />
  <path
     d="M 85.837891 20.886719 C 79.650391 21.111719 73.724609 23.024219 68.037109 25.324219 C 65.149609 26.574219 62.312891 27.9375 59.400391 29.125 L 59.625 29.550781 C 61.5625 34.375781 57.775781 38.550391 55.050781 42.087891 C 54.975781 42.187891 54.813281 42.388281 54.738281 42.488281 C 50.525781 50.288281 41.562109 53.238281 33.287109 54.175781 C 29.724609 59.313281 27.525391 65.150781 24.962891 70.800781 L 25.425781 71.4375 C 29.125781 76.825 30.799609 83.462109 31.224609 89.912109 C 30.262109 96.099609 28.35 102.78672 23.3125 106.94922 L 23 107.25 C 25.0875 121.2875 31.937891 134.39922 41.400391 144.88672 C 53.325391 157.98672 70.086719 166.15 87.574219 168.5625 C 96.299219 169.925 105.17461 168.59922 113.72461 166.69922 C 135.04961 161.69922 153.41211 146.33711 162.84961 126.66211 C 169.06211 114.49961 170.42578 100.65 170.23828 87.1875 C 169.66328 87.0375 168.5125 86.749609 167.9375 86.599609 C 161.4125 85.699609 157.18789 79.825781 153.77539 74.738281 C 150.22539 68.125781 147.09922 59.049219 152.13672 52.386719 C 153.63672 51.911719 155.15 51.537891 156.6875 51.212891 C 149.0625 39.825391 137.72461 30.824609 124.97461 25.787109 C 125.02461 24.862109 125.14922 22.9875 125.19922 22.0625 L 124.92578 23.136719 C 124.42578 25.074219 123.97578 27.037109 123.48828 28.974609 C 118.23828 32.874609 111.3375 33.637109 105 33.099609 C 97.4375 31.687109 89.112891 28.449219 85.837891 20.886719 z M 95.365234 47.259766 C 96.129358 47.276273 96.894922 47.314062 97.662109 47.375 C 96.299609 52.6125 94.711719 57.787891 93.136719 62.962891 C 92.711719 63.675391 91.849609 65.088281 91.412109 65.800781 C 89.912109 66.738281 88.3875 67.638281 86.875 68.550781 C 85.8375 68.813281 84.799219 69.063281 83.761719 69.300781 C 80.786719 69.950781 77.724219 70.012109 74.699219 70.099609 C 70.561719 66.574609 66.937109 62.525781 63.599609 58.238281 C 72.833984 51.664062 83.903381 47.012161 95.365234 47.259766 z M 110.69922 49.375 C 124.06172 53.2 135.64922 62.413281 142.32422 74.613281 C 142.66172 75.150781 143.32461 76.2125 143.66211 76.75 C 143.69961 77.5 143.75039 79.012891 143.77539 79.775391 C 141.72539 80.425391 139.67461 81.111719 137.66211 81.886719 C 132.48711 83.011719 127.17578 82.774219 121.92578 82.511719 C 117.22578 80.111719 113.09922 76.688281 110.57422 71.988281 C 106.54922 64.938281 110.41172 56.8375 110.69922 49.375 z M 53.349609 69.162109 C 56.512109 73.674609 59.525781 78.324219 61.738281 83.386719 C 61.700781 88.324219 57.987891 91.700391 54.587891 94.712891 C 51.637891 94.987891 48.675391 95.099609 45.712891 95.099609 C 45.237891 94.774609 44.275781 94.112109 43.800781 93.787109 C 44.913281 89.337109 45.049219 84.625 47.261719 80.5 C 47.361719 79.9125 47.5875 78.713281 47.6875 78.113281 C 48.8 76.175781 49.861719 74.212891 51.074219 72.337891 C 51.836719 71.275391 52.599609 70.212109 53.349609 69.162109 z M 147.61328 95.337891 C 147.78828 105.67539 144.2375 116.13711 137.875 124.28711 C 131.9875 132.87461 122.625 138.42461 113.125 142.22461 C 105.125 145.01211 96.612109 145.51328 88.224609 144.80078 C 78.374609 142.28828 68.274219 138.8875 60.886719 131.5625 C 54.236719 125.5375 48.461719 117.88672 46.824219 108.88672 L 47.613281 109.5625 C 48.113281 109.9875 49.113281 110.84961 49.613281 111.28711 C 54.225781 113.09961 58.624609 115.40039 62.787109 118.08789 C 67.112109 126.87539 75.2375 133.2625 84.75 135.5625 C 85 135.625 85.525391 135.73828 85.775391 135.80078 C 96.150391 137.77578 107.6375 136.43828 116.25 129.92578 C 121.15 126.83828 123.60039 121.43711 127.08789 117.03711 C 133.06289 109.02461 140.70078 102.50039 147.61328 95.337891 z "
     transform="scale(0.8,0.8)"
     id="path14"
     style="fill:#9fc639;fill-opacity:1" />
  <path
     fill="#fe661e"
     d=" M 29.80 21.85 C 34.81 17.85 43.61 17.89 47.52 23.30 L 47.70 23.64 C 46.22 26.89 45.11 30.28 44.04 33.67 C 43.98 33.75 43.85 33.91 43.79 33.99 C 39.95 36.54 36.51 40.07 31.85 41.03 C 29.16 41.66 26.40 41.85 23.67 42.13 L 23.06 42.18 C 22.15 39.56 20.92 36.91 21.12 34.07 C 22.19 29.01 26.04 25.15 29.80 21.85 Z"
     id="path16" />
  <path
     fill="#fe4b0e"
     d=" M 35.53 21.48 C 37.36 19.72 40.25 22.71 38.66 24.58 C 36.25 28.34 33.29 32.49 28.89 33.97 C 24.97 34.42 25.75 28.94 26.78 26.65 C 29.33 24.43 32.60 23.14 35.53 21.48 Z"
     id="path18" />
  <path
     fill="#c34f0e"
     d=" M 47.70 23.64 C 49.25 27.50 46.22 30.84 44.04 33.67 C 45.11 30.28 46.22 26.89 47.70 23.64 Z"
     id="path20" />
  <path
     fill="#fe7827"
     d=" M 28.76 26.09 C 29.58 25.97 31.21 25.72 32.03 25.59 C 32.03 26.50 32.03 28.33 32.03 29.24 C 29.57 29.89 29.19 27.97 28.76 26.09 Z"
     id="path22" />
  <path
     fill="#fd9669"
     d=" M 21.85 34.83 C 22.57 33.05 23.14 31.12 24.54 29.72 C 24.60 33.02 24.82 36.31 25.48 39.55 C 23.85 38.32 22.78 36.60 21.85 34.83 Z"
     id="path24" />
  <path
     fill="#c25d1c"
     d=" M 31.85 41.03 C 36.51 40.07 39.95 36.54 43.79 33.99 C 40.42 40.23 33.25 42.59 26.63 43.34 C 25.89 43.04 24.41 42.43 23.67 42.13 C 26.40 41.85 29.16 41.66 31.85 41.03 Z"
     id="path26" />
  <path
     fill="#88a230"
     d=" M 46.53 47.50 C 53.99 39.25 64.97 34.50 76.05 34.15 C 88.72 34.04 101.36 39.88 109.23 49.87 C 111.37 52.77 114.18 55.81 113.86 59.69 C 108.52 49.93 99.25 42.56 88.56 39.50 C 87.37 39.17 86.18 38.89 84.97 38.67 C 83.01 38.34 81.03 38.15 79.06 37.97 L 78.13 37.90 C 68.31 37.12 58.76 40.98 50.88 46.59 C 48.58 48.57 46.43 50.72 44.47 53.04 C 43.85 53.78 43.26 54.55 42.68 55.33 C 42.08 56.17 41.47 57.02 40.86 57.87 L 39.61 58.90 C 40.45 54.37 43.58 50.84 46.53 47.50 Z"
     id="path28" />
  <path
     d=" M 78.13 37.90 L 79.06 37.97 C 79.93 38.87 81.16 39.62 81.57 40.85 C 81.23 43.78 80.22 46.59 79.30 49.38 C 78.25 53.01 75.20 55.45 72.94 58.31 C 73.79 55.74 74.21 53.06 74.51 50.37 C 75.77 46.23 77.04 42.09 78.13 37.90 Z"
     id="path32"
     fill="#eb7f3b" />
  <path
     fill="#e86e23"
     d=" M 79.06 37.97 C 81.03 38.15 83.01 38.34 84.97 38.67 C 84.57 38.78 83.79 38.98 83.40 39.08 C 83.91 46.07 84.26 53.13 82.67 60.02 C 81.28 59.89 79.88 59.82 78.49 59.64 C 77.66 58.68 77.02 57.58 76.33 56.53 C 74.62 58.82 72.82 61.43 69.77 61.89 L 69.68 60.82 C 70.74 58.05 71.90 55.33 73.13 52.64 C 73.48 52.07 74.17 50.94 74.51 50.37 C 74.21 53.06 73.79 55.74 72.94 58.31 C 75.20 55.45 78.25 53.01 79.30 49.38 C 80.22 46.59 81.23 43.78 81.57 40.85 C 81.16 39.62 79.93 38.87 79.06 37.97 Z"
     id="path34" />
  <path
     fill="#e55413"
     d=" M 83.40 39.08 C 83.79 38.98 84.57 38.78 84.97 38.67 C 86.18 38.89 87.37 39.17 88.56 39.50 C 88.33 45.47 85.24 51.95 88.46 57.59 C 88.12 60.66 88.15 64.08 90.74 66.24 C 95.70 72.31 104.73 69.40 110.13 65.51 C 111.74 64.89 113.38 64.34 115.02 63.82 L 115.92 63.53 C 117.27 67.65 118.26 71.90 118.09 76.27 C 112.56 82.00 106.45 87.22 101.67 93.63 C 98.88 97.15 96.92 101.47 93.00 103.94 C 86.11 109.15 76.92 110.22 68.62 108.64 C 68.42 108.59 68.00 108.50 67.80 108.45 C 65.37 102.64 57.98 101.12 56.04 95.05 C 54.99 92.78 54.51 90.12 52.74 88.27 C 50.78 87.10 48.38 87.10 46.20 86.63 C 47.19 87.72 48.19 88.81 49.14 89.94 C 45.40 88.75 41.57 87.89 37.70 87.30 C 36.18 85.40 36.15 82.93 36.11 80.62 C 39.60 83.23 43.65 84.97 47.84 86.10 C 47.59 83.82 48.56 80.30 45.71 79.32 C 42.34 78.45 38.83 79.25 35.45 79.72 C 35.42 78.80 35.34 76.96 35.31 76.04 L 36.57 76.08 C 38.94 76.08 41.31 75.99 43.67 75.77 C 46.11 75.36 48.59 74.97 51.08 75.21 C 52.24 75.31 53.40 75.46 54.56 75.60 C 54.89 72.81 53.69 69.22 56.11 67.12 C 56.97 65.86 58.90 64.93 58.70 63.19 C 56.54 58.77 52.79 55.41 49.22 52.13 C 48.37 52.96 47.51 53.79 46.66 54.62 C 45.93 54.09 45.20 53.57 44.47 53.04 C 46.43 50.72 48.58 48.57 50.88 46.59 C 53.55 50.02 56.45 53.26 59.76 56.08 C 62.81 58.42 65.67 61.63 69.77 61.89 C 72.82 61.43 74.62 58.82 76.33 56.53 C 77.02 57.58 77.66 58.68 78.49 59.64 C 79.88 59.82 81.28 59.89 82.67 60.02 C 84.26 53.13 83.91 46.07 83.40 39.08 Z"
     id="path36" />
  <path
     fill="#ff671e"
     d=" M 121.71 41.91 C 122.91 41.53 124.12 41.23 125.35 40.97 C 129.37 40.26 133.31 42.15 135.72 45.34 C 139.12 49.71 143.13 55.12 141.25 60.96 C 140.82 64.30 138.52 66.80 136.49 69.28 L 136.19 69.75 C 135.73 69.63 134.81 69.40 134.35 69.28 C 129.23 65.13 124.23 60.25 122.13 53.83 C 120.67 50.00 121.42 45.86 121.71 41.91 Z"
     id="path40" />
  <path
     fill="#ff8f5f"
     d=" M 124.00 44.27 C 125.34 43.55 126.52 42.34 128.12 42.25 C 130.48 42.38 132.19 44.22 133.99 45.54 C 131.06 45.42 128.13 45.42 125.20 45.61 C 124.90 45.28 124.30 44.61 124.00 44.27 Z"
     id="path42" />
  <path
     fill="#c2410a"
     d=" M 123.02 59.79 C 120.18 54.50 117.68 47.24 121.71 41.91 C 121.42 45.86 120.67 50.00 122.13 53.83 C 124.23 60.25 129.23 65.13 134.35 69.28 C 129.13 68.56 125.75 63.86 123.02 59.79 Z"
     id="path44" />
  <path
     fill="#fe4d0d"
     d=" M 128.88 48.90 C 131.62 48.81 134.38 48.96 136.91 50.10 C 135.78 50.56 134.74 51.15 133.79 51.89 C 133.88 52.64 134.07 54.15 134.17 54.90 C 135.47 54.80 136.77 54.70 138.07 54.59 C 138.36 56.26 138.58 57.93 138.77 59.60 C 132.45 61.50 128.58 54.28 128.88 48.90 Z"
     id="path46" />
  <path
     fill="#e97028"
     d=" M 46.66 54.62 C 47.51 53.79 48.37 52.96 49.22 52.13 C 52.79 55.41 56.54 58.77 58.70 63.19 C 58.90 64.93 56.97 65.86 56.11 67.12 C 53.69 69.22 54.89 72.81 54.56 75.60 C 53.40 75.46 52.24 75.31 51.08 75.21 C 51.54 74.96 52.45 74.46 52.91 74.21 C 51.71 71.72 50.54 69.22 49.39 66.71 C 47.62 62.66 45.21 58.94 42.68 55.33 C 43.26 54.55 43.85 53.78 44.47 53.04 C 45.20 53.57 45.93 54.09 46.66 54.62 Z"
     id="path48" />
  <path
     fill="#fb8a36"
     d=" M 69.50 54.84 C 70.71 54.11 71.93 53.39 73.13 52.64 C 71.90 55.33 70.74 58.05 69.68 60.82 C 68.85 58.99 67.92 57.22 67.01 55.44 C 67.84 55.25 68.67 55.05 69.50 54.84 Z"
     id="path50" />
  <path
     fill="#c54a11"
     d=" M 14.78 56.59 C 16.67 55.73 18.60 56.12 20.34 57.15 C 23.30 61.46 24.64 66.77 24.98 71.93 C 24.21 76.88 22.68 82.23 18.65 85.56 C 20.49 81.50 22.58 77.42 23.24 72.96 C 23.30 68.50 21.89 64.08 19.97 60.08 C 19.08 57.97 16.68 57.41 14.78 56.59 Z"
     id="path52" />
  <path
     d=" M 59.76 56.08 C 62.18 56.01 64.63 55.96 67.01 55.44 C 67.92 57.22 68.85 58.99 69.68 60.82 L 69.77 61.89 C 65.67 61.63 62.81 58.42 59.76 56.08 Z"
     id="path56"
     fill="#ff6e19" />
  <path
     fill="#fe641f"
     d=" M 6.98 63.93 C 8.83 60.77 11.56 58.29 14.78 56.59 C 16.68 57.41 19.08 57.97 19.97 60.08 C 21.89 64.08 23.30 68.50 23.24 72.96 C 22.58 77.42 20.49 81.50 18.65 85.56 L 18.40 85.80 C 17.45 86.25 16.49 86.69 15.53 87.12 C 13.33 86.12 11.21 84.95 9.20 83.60 C 11.15 83.15 13.10 82.72 15.06 82.29 C 12.78 80.01 10.54 77.68 8.40 75.27 C 8.03 77.05 7.65 78.82 7.24 80.59 C 5.59 75.33 5.81 69.76 6.28 64.34 C 7.24 66.50 7.42 68.86 7.75 71.18 C 7.67 68.74 7.44 66.32 6.98 63.93 Z"
     id="path58" />
  <path
     fill="#fe6d18"
     d=" M 90.74 66.24 C 88.15 64.08 88.12 60.66 88.46 57.59 C 90.48 61.35 93.78 64.09 97.54 66.01 C 101.74 66.22 105.99 66.41 110.13 65.51 C 104.73 69.40 95.70 72.31 90.74 66.24 Z"
     id="path60" />
  <path
     fill="#fd4a0d"
     d=" M 9.25 69.68 C 9.32 66.08 11.08 62.59 13.97 60.43 C 15.95 62.16 18.01 64.21 18.08 67.03 C 18.51 70.41 16.36 73.26 14.07 75.47 C 12.29 73.73 9.96 72.20 9.25 69.68 Z"
     id="path62" />
  <path
     fill="#fd7727"
     d=" M 10.97 67.07 C 11.50 66.81 12.57 66.27 13.11 66.00 C 13.59 67.26 13.93 68.56 14.13 69.89 C 13.36 69.92 11.83 69.98 11.07 70.00 C 11.04 69.27 11.00 67.81 10.97 67.07 Z"
     id="path64" />
  <path
     fill="#ff892d"
     d=" M 49.39 66.71 C 50.54 69.22 51.71 71.72 52.91 74.21 C 52.45 74.46 51.54 74.96 51.08 75.21 C 48.59 74.97 46.11 75.36 43.67 75.77 C 46.39 73.36 49.36 70.66 49.39 66.71 Z"
     id="path66" />
  <path
     fill="#657e1f"
     d=" M 136.19 69.75 L 136.49 69.28 C 137.69 82.84 135.57 96.96 129.08 109.04 C 121.13 124.68 106.39 137.09 89.08 140.80 C 82.66 142.42 75.94 142.31 69.40 141.57 C 69.63 139.33 69.85 137.09 70.06 134.85 C 77.04 135.94 84.14 134.88 90.98 133.36 C 108.04 129.36 122.73 117.07 130.28 101.33 C 135.25 91.60 136.34 80.52 136.19 69.75 Z"
     id="path68" />
  <path
     fill="#e86d23"
     d=" M 102.08 82.17 C 101.16 74.63 109.73 70.13 116.24 71.93 C 112.56 76.49 107.65 80.26 102.08 82.17 Z"
     id="path70" />
  <path
     fill="#fd8752"
     d=" M 7.24 80.59 C 7.65 78.82 8.03 77.05 8.40 75.27 C 10.54 77.68 12.78 80.01 15.06 82.29 C 13.10 82.72 11.15 83.15 9.20 83.60 C 8.56 82.59 7.91 81.58 7.24 80.59 Z"
     id="path72" />
  <path
     fill="#e86e23"
     d=" M 35.45 79.72 C 38.83 79.25 42.34 78.45 45.71 79.32 C 48.56 80.30 47.59 83.82 47.84 86.10 C 43.65 84.97 39.60 83.23 36.11 80.62 L 35.45 79.72 Z"
     id="path76" />
  <path
     fill="#60791f"
     d=" M 15.53 87.12 C 16.49 86.69 17.45 86.25 18.40 85.80 C 20.07 97.03 25.55 107.52 33.12 115.91 C 42.66 126.39 56.07 132.92 70.06 134.85 C 69.85 137.09 69.63 139.33 69.40 141.57 C 65.36 140.82 61.36 139.87 57.53 138.35 C 40.41 131.97 26.92 117.45 20.81 100.35 C 19.33 95.91 17.95 91.37 17.98 86.65 C 17.37 86.76 16.14 87.00 15.53 87.12 Z"
     id="path78" />
  <path
     fill="#f98130"
     d=" M 37.70 87.30 C 41.57 87.89 45.40 88.75 49.14 89.94 C 49.55 91.44 49.86 92.96 50.23 94.47 C 46.90 92.32 43.38 90.48 39.69 89.03 C 39.29 88.68 38.49 87.99 38.09 87.65 L 37.70 87.30 Z"
     id="path80" />
  <path
     fill="#e96b22"
     d=" M 46.20 86.63 C 48.38 87.10 50.78 87.10 52.74 88.27 C 54.51 90.12 54.99 92.78 56.04 95.05 C 57.98 101.12 65.37 102.64 67.80 108.45 C 60.19 106.61 53.69 101.50 50.23 94.47 C 49.86 92.96 49.55 91.44 49.14 89.94 C 48.19 88.81 47.19 87.72 46.20 86.63 Z"
     id="path82" />
  <path
     fill="#657e1f"
     d=" M 42.05 120.25 C 38.81 118.15 36.03 115.41 33.92 112.18 C 36.67 114.83 39.42 117.48 42.05 120.25 Z"
     id="path84" />
  <path
     fill="#82ab2c"
     d=" M 71.51 132.12 C 77.30 132.03 83.01 130.90 88.79 130.88 C 86.96 132.33 84.57 132.37 82.36 132.67 C 78.75 132.97 74.94 133.65 71.51 132.12 Z"
     id="path86" />
</svg>
